<svg width="849" height="851" viewBox="0 0 849 851" fill="none" xmlns="http://www.w3.org/2000/svg">
<path d="M587.316 578.893H474.022C471.007 578.886 468.118 577.681 465.991 575.544C463.865 573.407 462.674 570.513 462.681 567.498V283.165C462.681 276.884 467.768 271.798 474.022 271.798H579.061C657.888 271.798 674.428 318.213 674.428 357.125C674.428 379.639 668.452 397.51 656.583 410.628C685.49 422.551 701.055 449.429 701.055 488.311C701.055 545.039 658.528 578.893 587.316 578.893ZM422.824 578.89H187.513C186.021 578.887 184.545 578.589 183.169 578.014C181.792 577.439 180.543 576.598 179.492 575.54C178.441 574.481 177.61 573.226 177.045 571.845C176.48 570.465 176.193 568.987 176.2 567.495V283.162C176.2 276.881 181.259 271.795 187.513 271.795H297.443C366.097 271.795 407.067 308.761 407.067 370.686C407.067 411.877 386.36 444.229 352.977 457.374L431.277 559.961C432.713 561.602 433.648 563.621 433.971 565.778C434.294 567.935 433.992 570.14 433.099 572.13C432.206 574.12 430.761 575.812 428.936 577.005C427.11 578.198 424.98 578.842 422.799 578.861M423.216 0.754639C188.521 0.754639 -1.77344 191.031 -1.77344 425.723C-1.77344 660.469 188.513 850.755 423.237 850.755C657.962 850.755 848.227 660.478 848.227 425.765C848.227 191.053 657.996 0.797165 423.258 0.797165" fill="#E41321"/>
</svg>
